<?xml version="1.0" encoding="UTF-8" standalone="no"?>
<!-- Created with Inkscape (http://www.inkscape.org/) -->

<svg
   xmlns:osb="http://www.openswatchbook.org/uri/2009/osb"
   xmlns:dc="http://purl.org/dc/elements/1.1/"
   xmlns:cc="http://creativecommons.org/ns#"
   xmlns:rdf="http://www.w3.org/1999/02/22-rdf-syntax-ns#"
   xmlns:svg="http://www.w3.org/2000/svg"
   xmlns="http://www.w3.org/2000/svg"
   xmlns:sodipodi="http://sodipodi.sourceforge.net/DTD/sodipodi-0.dtd"
   xmlns:inkscape="http://www.inkscape.org/namespaces/inkscape"
   width="800"
   height="800"
   id="svg2"
   version="1.1"
   inkscape:version="0.48.2 r9819"
   sodipodi:docname="my_routes.svg"
   inkscape:export-filename="C:\local\workspace\PaceTracker\Logo\my_routes.png"
   inkscape:export-xdpi="10.35"
   inkscape:export-ydpi="10.35">
  <defs
     id="defs4">
    <linearGradient
       id="linearGradient5664"
       osb:paint="gradient">
      <stop
         style="stop-color:#d4d4d4;stop-opacity:1;"
         offset="0"
         id="stop5666" />
      <stop
         id="stop5672"
         offset="0.61764705"
         style="stop-color:#aaaaaa;stop-opacity:0.49803922;" />
      <stop
         style="stop-color:#bbbbbb;stop-opacity:0.24705882;"
         offset="0.80882353"
         id="stop5676" />
      <stop
         style="stop-color:#cccccc;stop-opacity:0;"
         offset="1"
         id="stop5668" />
    </linearGradient>
    <linearGradient
       id="linearGradient5620"
       osb:paint="solid">
      <stop
         style="stop-color:#e6e6e6;stop-opacity:1;"
         offset="0"
         id="stop5622" />
    </linearGradient>
    <linearGradient
       id="linearGradient3969"
       osb:paint="solid">
      <stop
         style="stop-color:#ffbe00;stop-opacity:1;"
         offset="0"
         id="stop3971" />
    </linearGradient>
    <linearGradient
       osb:paint="solid"
       id="linearGradient5312">
      <stop
         id="stop5314"
         offset="0"
         style="stop-color:#ff0000;stop-opacity:1;" />
    </linearGradient>
  </defs>
  <sodipodi:namedview
     id="base"
     pagecolor="#ffffff"
     bordercolor="#666666"
     borderopacity="1.0"
     inkscape:pageopacity="0.0"
     inkscape:pageshadow="2"
     inkscape:zoom="0.98994948"
     inkscape:cx="396.67114"
     inkscape:cy="398.51795"
     inkscape:document-units="px"
     inkscape:current-layer="layer3"
     showgrid="false"
     inkscape:snap-bbox="true"
     inkscape:snap-bbox-midpoints="true"
     inkscape:window-width="1440"
     inkscape:window-height="848"
     inkscape:window-x="-8"
     inkscape:window-y="-8"
     inkscape:window-maximized="1"
     inkscape:snap-bbox-edge-midpoints="true"
     inkscape:bbox-paths="true"
     inkscape:bbox-nodes="true"
     inkscape:object-paths="true" />
  <metadata
     id="metadata7">
    <rdf:RDF>
      <cc:Work
         rdf:about="">
        <dc:format>image/svg+xml</dc:format>
        <dc:type
           rdf:resource="http://purl.org/dc/dcmitype/StillImage" />
        <dc:title></dc:title>
      </cc:Work>
    </rdf:RDF>
  </metadata>
  <g
     inkscape:label="Ebene 1"
     inkscape:groupmode="layer"
     id="layer1"
     transform="translate(0,-252.36218)" />
  <g
     inkscape:groupmode="layer"
     id="layer3"
     inkscape:label="Ebene#1"
     transform="translate(0,-252.36218)">
    <path
       style="fill:#cc4307;fill-opacity:1;fill-rule:nonzero;stroke:none"
       d="M 399.15625 53.53125 C 398.5435 53.587552 397.94577 53.786254 397.40625 54.1875 C 390.86275 58.32423 384.89579 63.38855 378.0625 67.09375 C 371.77218 70.79868 366.30062 75.80635 359.5625 78.75 C 352.16861 82.05572 344.95754 85.8081 337.28125 88.4375 C 326.70185 91.97793 315.88482 95.19339 304.71875 96.125 C 298.76537 96.44241 292.80094 96.2841 286.84375 96.25 C 276.67677 96.29604 267.24473 92.07689 257.5 89.78125 C 249.20155 87.89969 241.96787 83.24872 234.125 80.15625 C 229.61165 78.42645 225.35389 76.0927 221.46875 73.21875 C 214.62973 68.20251 207.02015 64.40992 199.78125 60.03125 C 197.04233 58.48116 194.42391 56.6244 191.46875 55.5 C 190.00376 54.94318 188.75544 56.13887 187.5625 56.78125 C 183.19128 59.46994 179.6745 63.2397 176.3125 67.0625 C 171.98865 71.94911 166.61046 75.70834 161.875 80.15625 C 144.63674 97.03617 127.18792 113.73998 108.96875 129.5625 C 95.747107 142.71452 82.31567 155.64248 68.375 168.03125 C 62.180116 172.67211 56.717615 178.17454 51.40625 183.78125 C 61.186552 189.62352 69.092761 197.9276 76.9375 206.0625 C 81.185821 210.6922 85.929423 214.87453 89.875 219.78125 C 94.99768 226.19891 99.398688 233.18144 103 240.5625 C 107.7181 250.19849 112.99004 259.64115 116.34375 269.875 C 120.34797 280.91155 123.21327 292.33487 124.8125 303.96875 C 126.32846 312.37891 126.85959 320.97356 126.1875 329.5 C 124.40249 343.52977 119.21862 356.75802 114.96875 370.15625 C 110.0699 386.91554 102.14645 402.53373 95.71875 418.71875 C 93.924339 423.27138 91.668909 427.63471 89.40625 431.96875 C 85.032027 440.24727 82.378808 449.25638 79.125 458 C 74.432966 470.97701 71.396448 484.46441 68.53125 497.9375 C 67.278693 504.04867 68.039374 510.33005 67 516.46875 C 66.30403 520.92799 66.359485 525.45281 67.09375 529.90625 C 68.429266 539.22652 68.566175 548.81244 71.5 557.84375 C 73.617228 564.17023 76.109415 570.36396 78.15625 576.71875 C 80.693947 584.49186 85.911281 590.90426 89.84375 597.96875 C 92.524971 602.59342 94.491911 607.79096 98.5 611.5 C 106.39769 619.05085 112.51444 628.29495 121 635.25 C 128.58212 641.62078 135.76878 648.56652 144.15625 653.90625 C 151.98944 658.91511 159.65628 664.24343 168.125 668.15625 C 178.66966 673.05154 189.20802 678.27045 200.5625 681.03125 C 204.55128 682.09483 208.51481 683.21018 212.46875 684.40625 C 218.79702 686.39743 225.50066 686.54117 231.96875 687.875 C 239.21405 689.34552 246.6406 689.46843 253.90625 690.8125 C 260.31941 691.99583 266.83212 692.38407 273.3125 693.03125 C 288.01501 694.84011 302.54248 697.83441 317.25 699.59375 C 321.0797 700.19197 324.67602 701.67633 328.375 702.78125 C 337.14295 705.49559 346.22051 707.7436 354.1875 712.46875 C 367.7964 720.96348 382.81118 728.6298 392.09375 742.25 C 394.25755 745.0646 396.32902 749.38 400.59375 748.75 C 403.02341 749.094 403.94837 746.49267 405.0625 744.875 C 407.52117 740.4771 410.16809 736.00446 414.25 732.90625 C 421.19651 727.56864 428.05435 722.01588 435.8125 717.875 C 441.69318 714.6995 447.41088 711.10886 453.71875 708.8125 C 462.65343 705.40695 471.76535 702.45294 481.03125 700.09375 C 492.4141 698.33718 503.74634 696.1671 515.1875 694.78125 C 525.81078 692.31845 536.82742 692.89138 547.5 690.75 C 554.23664 689.46805 561.12267 689.37282 567.84375 687.96875 C 574.50877 686.56655 581.40653 686.41783 587.9375 684.375 C 593.74721 682.62013 599.61068 680.97422 605.5 679.5 C 610.61199 678.22616 615.27243 675.74928 620.03125 673.5625 C 625.71419 670.89456 631.69823 668.85982 637.15625 665.71875 C 644.69895 661.38888 651.71289 656.20119 659.0625 651.5625 C 665.28033 647.74851 670.37097 642.47942 676.03125 637.9375 C 686.38209 629.61546 694.17332 618.71321 703.28125 609.15625 C 707.66011 604.05774 710.21864 597.76338 713.84375 592.15625 C 717.38971 586.60448 720.92182 580.9224 722.75 574.53125 C 725.25346 565.81068 729.71338 557.64769 730.71875 548.53125 C 732.11018 537.03065 735.11022 525.50763 733.1875 513.875 C 732.8916 499.95073 729.11306 486.47551 725.875 473.03125 C 723.17258 463.37693 719.29865 454.134 716.25 444.59375 C 713.17328 434.68845 707.26801 426.03878 703.53125 416.40625 C 695.79041 398.49869 688.01839 380.53335 682.625 361.75 C 679.23599 350.36903 673.85047 339.19026 674.1875 327.0625 C 674.27545 317.97672 673.66935 308.75458 675.84375 299.84375 C 678.84982 282.85899 684.08273 266.19097 691.875 250.78125 C 696.09957 241.04127 702.38777 232.46449 708.125 223.59375 C 714.28337 215.3767 720.3639 206.88472 728.4375 200.40625 C 732.99833 196.70179 737.39262 192.76751 741.40625 188.46875 L 741.40625 176.28125 C 738.3026 172.11959 734.03173 169.12353 730.40625 165.46875 C 727.75307 162.81495 725.20598 160.02643 722.375 157.5625 C 708.52827 145.94929 696.06696 132.79162 682.40625 120.96875 C 678.67076 117.5791 675.00625 114.12732 671.125 110.90625 C 664.63661 105.56039 659.48287 98.83363 653.1875 93.28125 C 644.0181 85.28236 635.75701 76.33191 626.8125 68.09375 C 621.90207 62.69171 616.47553 57.72028 610.1875 53.96875 C 609.3838 53.45948 608.57034 54.44231 607.84375 54.6875 C 593.74327 64.02973 579.85703 74.01416 564.25 80.75 C 557.65051 83.61707 551.45048 87.4583 544.4375 89.28125 C 536.64528 91.33384 528.8723 93.52612 521 95.25 C 514.80761 96.63552 508.41824 96.2796 502.125 96.3125 C 488.60431 96.3898 475.42717 92.85709 462.59375 88.9375 C 456.56799 87.12428 451.05575 84.04267 445.40625 81.34375 C 440.13115 78.81744 435.02401 75.97393 430.125 72.78125 C 424.20998 68.8859 418.06829 65.30178 412.5 60.90625 C 409.29451 58.35183 405.88159 55.98185 402.15625 54.25 C 401.22786 53.762563 400.17749 53.437413 399.15625 53.53125 z M 399.84375 98.25 C 400.01744 98.235086 400.19732 98.244674 400.375 98.25 C 400.78111 98.262174 401.19511 98.334397 401.625 98.46875 C 406.783 100.67143 411.61523 103.72024 415.71875 107.5625 C 418.5796 110.31313 422.55942 111.27091 426 113.0625 C 434.64418 116.98803 442.81826 122.10776 452.09375 124.46875 C 460.42825 126.55904 468.47214 129.84815 477 131.15625 C 480.28033 131.75045 483.6253 131.62486 486.9375 131.9375 C 497.73711 133.17267 508.65139 132.51971 519.40625 131.1875 C 526.56154 129.91473 533.43097 127.47959 540.4375 125.59375 C 546.6434 123.85108 552.76628 121.72978 558.5 118.75 C 566.61784 114.73975 575.26272 111.63255 582.6875 106.34375 C 585.95628 104.12681 589.07179 101.56121 592.75 100.03125 C 594.42734 99.24527 595.95477 100.77326 597.1875 101.71875 C 603.81835 107.85806 609.72796 114.73988 616.6875 120.53125 C 628.00671 131.17207 639.44144 141.70574 650.9375 152.15625 C 661.46807 162.45422 672.82785 171.8523 683.4375 182.0625 C 685.24445 183.5027 685.12487 186.41987 683.28125 187.78125 C 679.32553 191.40477 676.30539 195.83431 672.9375 199.96875 C 666.21998 207.61844 660.7642 216.24547 655.3125 224.8125 C 651.11244 231.00069 648.48094 238.02538 645.03125 244.625 C 642.08655 250.10375 641.26288 256.54411 637.46875 261.59375 C 480.1685 261.3887 322.86209 261.5819 165.5625 261.5 C 163.29751 261.74803 161.60564 259.93302 161.125 257.875 C 159.20768 251.0577 155.51763 244.97152 152.75 238.5 C 150.06658 232.46191 147.03057 226.58455 143.34375 221.09375 C 139.20725 214.92052 135.8849 208.12359 130.8125 202.625 C 127.09184 198.35113 122.92657 194.46079 119.3125 190.09375 C 118.18627 188.6304 116.01384 187.82659 115.59375 185.9375 C 116.57755 182.42985 119.92187 180.401 122.34375 177.9375 C 130.87077 169.5888 139.54072 161.38505 148.46875 153.46875 C 154.91066 148.8304 159.91019 142.61326 165.90625 137.46875 C 172.47998 132.11031 177.86739 125.5353 184.125 119.84375 C 191.2742 113.7362 197.62729 106.67235 205.21875 101.09375 C 206.86057 99.70708 209.03169 100.14869 210.65625 101.3125 C 222.85987 109.43967 236.39655 115.23097 249.625 121.4375 C 260.27828 125.20993 270.93923 129.07196 282.0625 131.25 C 291.722 132.47617 301.5276 132.98767 311.25 132.21875 C 316.66341 131.53247 322.18557 131.87763 327.53125 130.625 C 335.9619 128.76267 344.10513 125.89074 352.34375 123.34375 C 360.86598 120.4383 368.5612 115.63572 376.78125 112.03125 C 382.6785 109.66821 387.34872 105.23285 392.8125 102.09375 C 395.06792 100.87803 397.23833 98.473712 399.84375 98.25 z M 201.4375 300.09375 C 213.12201 300.11498 224.81676 300.18234 236.5 300.125 C 352.59747 300.12498 468.68366 300.1248 584.78125 300.125 C 601.35084 300.1762 617.93033 300.01376 634.5 300.21875 C 632.06074 315.47151 632.50924 330.95275 632.6875 346.34375 C 632.7513 348.21254 633.03076 350.08185 633.59375 351.875 C 639.46044 366.21655 643.13522 381.31486 648.5 395.84375 C 651.84137 405.88283 656.92284 415.20753 660.5 425.15625 C 662.25764 430.42926 666.15572 434.63569 667.9375 439.90625 C 671.3071 448.66039 675.44559 457.13921 678 466.1875 C 679.2211 469.95469 680.59039 473.69751 681.8125 477.46875 C 685.74343 493.18048 690.15189 509.20241 688.96875 525.5625 C 687.75893 532.32876 687.06247 539.19897 685.40625 545.875 C 682.60173 553.17029 680.73877 560.89723 676.875 567.75 C 673.86555 573.44419 670.0247 578.67465 667.3125 584.53125 C 665.88035 587.91017 662.63667 589.90011 660.3125 592.59375 C 652.55968 601.44896 643.73524 609.24094 635.03125 617.125 C 632.54574 619.00652 629.61443 620.17509 627.03125 621.90625 C 621.86224 625.25751 616.875 628.91277 611.375 631.71875 C 605.47695 634.64834 599.33778 637.09505 593.34375 639.8125 C 586.65265 642.80258 579.36809 643.9287 572.375 645.96875 C 568.64653 647.00999 564.8017 647.56696 560.96875 648.03125 C 553.65336 648.89395 546.48943 650.91079 539.09375 651.0625 C 533.0903 651.081 527.31882 652.91806 521.375 653.46875 C 515.10916 653.91852 508.81913 654.45414 502.6875 655.875 C 497.29893 657.11747 491.69548 656.77214 486.34375 658.21875 C 481.60595 659.46882 476.69612 659.76519 471.90625 660.71875 C 461.24105 663.66868 450.69169 667.12666 440.09375 670.28125 C 429.7219 676.37131 418.84166 681.70247 409.09375 688.8125 C 406.04403 690.87789 403.66173 694.68867 399.75 694.9375 C 396.77233 693.41981 394.47244 690.92549 391.9375 688.8125 C 383.65724 681.62476 372.96314 678.16052 364.21875 671.65625 C 361.32026 669.43965 357.56543 669.23593 354.1875 668.21875 C 346.7981 666.12596 339.40086 663.99024 332.15625 661.4375 C 327.50532 659.79692 322.51419 659.95628 317.71875 659.03125 C 313.93443 658.29478 310.1556 657.42134 306.3125 657.0625 C 298.74433 656.46166 291.32969 654.70243 283.78125 653.9375 C 275.8177 653.21619 267.98266 651.46826 260 650.9375 C 252.31817 650.31381 244.84444 648.37574 237.1875 647.5625 C 227.09865 646.02757 217.24548 643.13037 207.625 639.78125 C 198.7249 635.9652 189.84232 632.01486 181.59375 626.90625 C 175.50809 623.26055 168.80424 620.31273 163.8125 615.125 C 159.77827 610.93075 154.79987 607.82873 150.75 603.65625 C 146.61437 599.5878 143.30987 594.7717 139.09375 590.78125 C 136.84404 588.68953 134.93718 586.23633 133.65625 583.4375 C 129.96098 575.7677 124.3252 569.15612 121.34375 561.125 C 117.50332 550.75003 113.41138 540.12192 113.3125 528.90625 C 112.56587 522.4304 112.41163 515.90844 113.28125 509.4375 C 113.26055 504.3689 114.22867 499.39017 115.59375 494.53125 C 117.926 482.09483 122.1245 470.12675 126.03125 458.125 C 129.38174 450.44692 132.10751 442.50925 135.90625 435.03125 C 141.71431 425.57036 144.88129 414.84953 149.5 404.8125 C 154.33861 393.36174 157.66499 381.34647 161.65625 369.59375 C 163.42502 364.34636 164.61229 358.88257 167.25 353.96875 C 168.11503 352.10961 169.51425 350.22208 169.03125 348.0625 C 168.39486 344.13984 168.3046 340.1123 168.96875 336.1875 C 170.04176 328.76363 168.75894 321.34681 168.28125 313.9375 C 167.75559 309.37825 166.68261 304.86729 166.375 300.28125 C 178.05536 300.07639 189.75299 300.07252 201.4375 300.09375 z "
       transform="translate(0,252.36218)"
       id="path3024-1" />
    <text
       xml:space="preserve"
       style="font-size:106.7347641px;font-style:normal;font-weight:bold;line-height:125%;letter-spacing:0px;word-spacing:0px;fill:#3371a3;fill-opacity:1;stroke:none;font-family:Sans;-inkscape-font-specification:Sans Bold"
       x="320.13495"
       y="478.93582"
       id="text3182-7"
       sodipodi:linespacing="125%"><tspan
         sodipodi:role="line"
         id="tspan3184-4"
         x="320.13495"
         y="478.93582"
         style="font-size:106.7347641px;font-weight:bold;line-height:100%;fill:#3371a3;fill-opacity:1;-inkscape-font-specification:Sans Bold">MY</tspan><tspan
         sodipodi:role="line"
         x="320.13495"
         y="585.67059"
         id="tspan3186-0" /></text>
    <text
       xml:space="preserve"
       style="font-size:106.7347641px;font-style:normal;font-weight:bold;line-height:125%;letter-spacing:0px;word-spacing:0px;fill:#3371a3;fill-opacity:1;stroke:none;font-family:Sans;-inkscape-font-specification:Sans Bold"
       x="172.61148"
       y="731.23615"
       id="text3188-9"
       sodipodi:linespacing="125%"><tspan
         sodipodi:role="line"
         id="tspan3190-4"
         x="172.61148"
         y="731.23615">ROUTES</tspan></text>
  </g>
  <g
     inkscape:groupmode="layer"
     id="layer2"
     inkscape:label="Ebene"
     transform="translate(0,-252.36218)" />
</svg>
