<?xml version="1.0" encoding="UTF-8" standalone="no"?>
<!-- Created with Inkscape (http://www.inkscape.org/) -->

<svg
   xmlns:osb="http://www.openswatchbook.org/uri/2009/osb"
   xmlns:dc="http://purl.org/dc/elements/1.1/"
   xmlns:cc="http://creativecommons.org/ns#"
   xmlns:rdf="http://www.w3.org/1999/02/22-rdf-syntax-ns#"
   xmlns:svg="http://www.w3.org/2000/svg"
   xmlns="http://www.w3.org/2000/svg"
   xmlns:sodipodi="http://sodipodi.sourceforge.net/DTD/sodipodi-0.dtd"
   xmlns:inkscape="http://www.inkscape.org/namespaces/inkscape"
   width="800"
   height="800"
   id="svg2"
   version="1.1"
   inkscape:version="0.48.3.1 r9886"
   sodipodi:docname="my_routesDS.svg"
   inkscape:export-filename="/home/johannes/Develop/workspace/PaceTracker/res/drawable/my_routes.png"
   inkscape:export-xdpi="10.35"
   inkscape:export-ydpi="10.35">
  <defs
     id="defs4">
    <linearGradient
       id="linearGradient5664"
       osb:paint="gradient">
      <stop
         style="stop-color:#d4d4d4;stop-opacity:1;"
         offset="0"
         id="stop5666" />
      <stop
         id="stop5672"
         offset="0.61764705"
         style="stop-color:#aaaaaa;stop-opacity:0.49803922;" />
      <stop
         style="stop-color:#bbbbbb;stop-opacity:0.24705882;"
         offset="0.80882353"
         id="stop5676" />
      <stop
         style="stop-color:#cccccc;stop-opacity:0;"
         offset="1"
         id="stop5668" />
    </linearGradient>
    <linearGradient
       id="linearGradient5620"
       osb:paint="solid">
      <stop
         style="stop-color:#e6e6e6;stop-opacity:1;"
         offset="0"
         id="stop5622" />
    </linearGradient>
    <linearGradient
       id="linearGradient3969"
       osb:paint="solid">
      <stop
         style="stop-color:#ffbe00;stop-opacity:1;"
         offset="0"
         id="stop3971" />
    </linearGradient>
    <linearGradient
       osb:paint="solid"
       id="linearGradient5312">
      <stop
         id="stop5314"
         offset="0"
         style="stop-color:#ff0000;stop-opacity:1;" />
    </linearGradient>
    <filter
       inkscape:collect="always"
       id="filter3948">
      <feGaussianBlur
         inkscape:collect="always"
         stdDeviation="1.0863254"
         id="feGaussianBlur3950" />
    </filter>
    <filter
       inkscape:collect="always"
       id="filter3952">
      <feGaussianBlur
         inkscape:collect="always"
         stdDeviation="17.316211"
         id="feGaussianBlur3954" />
    </filter>
  </defs>
  <sodipodi:namedview
     id="base"
     pagecolor="#ffffff"
     bordercolor="#666666"
     borderopacity="1.0"
     inkscape:pageopacity="0.0"
     inkscape:pageshadow="2"
     inkscape:zoom="0.69999999"
     inkscape:cx="151.73401"
     inkscape:cy="399.32009"
     inkscape:document-units="px"
     inkscape:current-layer="layer3"
     showgrid="false"
     inkscape:snap-bbox="true"
     inkscape:snap-bbox-midpoints="true"
     inkscape:window-width="1440"
     inkscape:window-height="825"
     inkscape:window-x="0"
     inkscape:window-y="24"
     inkscape:window-maximized="1"
     inkscape:snap-bbox-edge-midpoints="true"
     inkscape:bbox-paths="true"
     inkscape:bbox-nodes="true"
     inkscape:object-paths="true" />
  <metadata
     id="metadata7">
    <rdf:RDF>
      <cc:Work
         rdf:about="">
        <dc:format>image/svg+xml</dc:format>
        <dc:type
           rdf:resource="http://purl.org/dc/dcmitype/StillImage" />
        <dc:title></dc:title>
      </cc:Work>
    </rdf:RDF>
  </metadata>
  <g
     inkscape:label="Ebene 1"
     inkscape:groupmode="layer"
     id="layer1"
     transform="translate(0,-252.36218)" />
  <g
     inkscape:groupmode="layer"
     id="layer3"
     inkscape:label="Ebene#1"
     transform="translate(0,-252.36218)">
    <path
       style="fill:#000000;fill-opacity:1;fill-rule:nonzero;stroke:#ffffff;stroke-opacity:1;filter:url(#filter3952)"
       d="m 399.15626,305.89343 c -0.61275,0.0563 -1.21048,0.255 -1.75,0.65625 -6.5435,4.13673 -12.51046,9.20105 -19.34375,12.90625 -6.29032,3.70493 -11.76188,8.7126 -18.5,11.65625 -7.39389,3.30572 -14.60496,7.0581 -22.28125,9.6875 -10.5794,3.54043 -21.39643,6.75589 -32.5625,7.6875 -5.95338,0.31741 -11.91781,0.1591 -17.875,0.125 -10.16698,0.046 -19.59902,-4.17311 -29.34375,-6.46875 -8.29845,-1.88156 -15.53213,-6.53253 -23.375,-9.625 -4.51335,-1.7298 -8.77111,-4.06355 -12.65625,-6.9375 -6.83902,-5.01624 -14.4486,-8.80883 -21.6875,-13.1875 -2.73892,-1.55009 -5.35734,-3.40685 -8.3125,-4.53125 -1.46499,-0.55682 -2.71331,0.63887 -3.90625,1.28125 -4.37122,2.68869 -7.888,6.45845 -11.25,10.28125 -4.32385,4.88661 -9.70204,8.64584 -14.4375,13.09375 -17.23826,16.87992 -34.68708,33.58373 -52.90625,49.40625 -13.22165,13.15202 -26.65308,26.07998 -40.59375,38.46875 -6.19489,4.64086 -11.65739,10.14329 -16.96875,15.75 9.7803,5.84227 17.68651,14.14635 25.53125,22.28125 4.24832,4.6297 8.99192,8.81203 12.9375,13.71875 5.12268,6.41766 9.52368,13.40019 13.125,20.78125 4.7181,9.63599 9.99004,19.07865 13.34375,29.3125 4.00422,11.03655 6.86952,22.45987 8.46875,34.09375 1.51596,8.41016 2.04709,17.00481 1.375,25.53125 -1.78501,14.02977 -6.96888,27.25802 -11.21875,40.65625 -4.89885,16.75929 -12.8223,32.37748 -19.25,48.5625 -1.79441,4.55263 -4.04984,8.91596 -6.3125,13.25 -4.37423,8.27852 -7.02745,17.28763 -10.28125,26.03125 -4.69204,12.97701 -7.72856,26.46441 -10.59375,39.9375 -1.25256,6.11117 -0.49188,12.39255 -1.53125,18.53125 -0.69597,4.45924 -0.64052,8.98406 0.0937,13.4375 1.33551,9.32027 1.47242,18.90619 4.40625,27.9375 2.11722,6.32648 4.60941,12.52021 6.65625,18.875 2.53769,7.77311 7.75503,14.18551 11.6875,21.25 2.68122,4.62467 4.64816,9.82221 8.65625,13.53125 7.89769,7.55085 14.01444,16.79495 22.5,23.75 7.58212,6.37078 14.76878,13.31652 23.15625,18.65625 7.83319,5.00886 15.50003,10.33718 23.96875,14.25 10.54466,4.89529 21.08302,10.1142 32.4375,12.875 3.98878,1.06358 7.95231,2.17893 11.90625,3.375 6.32827,1.99118 13.03191,2.13492 19.5,3.46875 7.2453,1.47052 14.67185,1.59343 21.9375,2.9375 6.41316,1.18333 12.92587,1.57157 19.40625,2.21875 14.70251,1.80886 29.22998,4.80316 43.9375,6.5625 3.8297,0.59822 7.42602,2.08258 11.125,3.1875 8.76795,2.71434 17.84551,4.96235 25.8125,9.6875 13.6089,8.49473 28.62368,16.16105 37.90625,29.78125 2.1638,2.8146 4.23527,7.13002 8.5,6.50002 2.42966,0.344 3.35462,-2.25735 4.46875,-3.87502 2.45867,-4.3979 5.10559,-8.87054 9.1875,-11.96875 6.94651,-5.33761 13.80435,-10.89037 21.5625,-15.03125 5.88068,-3.1755 11.59838,-6.76614 17.90625,-9.0625 8.93468,-3.40555 18.0466,-6.35956 27.3125,-8.71875 11.38285,-1.75657 22.71509,-3.92665 34.15625,-5.3125 10.62328,-2.4628 21.63992,-1.88987 32.3125,-4.03125 6.73664,-1.28195 13.62267,-1.37718 20.34375,-2.78125 6.66502,-1.4022 13.56278,-1.55092 20.09375,-3.59375 5.80971,-1.75487 11.67318,-3.40078 17.5625,-4.875 5.11199,-1.27384 9.77243,-3.75072 14.53125,-5.9375 5.68294,-2.66794 11.66698,-4.70268 17.125,-7.84375 7.5427,-4.32987 14.55664,-9.51756 21.90625,-14.15625 6.21783,-3.81399 11.30847,-9.08308 16.96875,-13.625 10.35084,-8.32204 18.14207,-19.22429 27.25003,-28.78125 4.3788,-5.09851 6.9374,-11.39287 10.5625,-17 3.5459,-5.55177 7.078,-11.23385 8.9062,-17.625 2.5035,-8.72057 6.9634,-16.88356 7.9688,-26 1.3914,-11.5006 4.3914,-23.02362 2.4687,-34.65625 -0.2959,-13.92427 -4.0744,-27.39949 -7.3125,-40.84375 -2.7024,-9.65432 -6.5763,-18.89725 -9.625,-28.4375 -3.0767,-9.9053 -8.982,-18.55497 -12.7187,-28.1875 -7.74087,-17.90756 -15.51289,-35.8729 -20.90628,-54.65625 -3.38901,-11.38097 -8.77453,-22.55974 -8.4375,-34.6875 0.0879,-9.08578 -0.51815,-18.30792 1.65625,-27.21875 3.00607,-16.98476 8.23898,-33.65278 16.03125,-49.0625 4.22457,-9.73998 10.51278,-18.31676 16.24998,-27.1875 6.1584,-8.21705 12.2389,-16.70903 20.3125,-23.1875 4.5608,-3.70446 8.9551,-7.63874 12.9688,-11.9375 l 0,-12.1875 c -3.1037,-4.16166 -7.3746,-7.15772 -11,-10.8125 -2.6532,-2.6538 -5.2003,-5.44232 -8.0313,-7.90625 -13.8467,-11.61321 -26.30802,-24.77088 -39.96873,-36.59375 -3.73549,-3.38965 -7.4,-6.84143 -11.28125,-10.0625 -6.48839,-5.34586 -11.64213,-12.07262 -17.9375,-17.625 -9.1694,-7.99889 -17.43049,-16.94934 -26.375,-25.1875 -4.91043,-5.40204 -10.33697,-10.37347 -16.625,-14.125 -0.8037,-0.50927 -1.61716,0.47356 -2.34375,0.71875 -14.10048,9.34223 -27.98672,19.32666 -43.59375,26.0625 -6.59949,2.86707 -12.79952,6.7083 -19.8125,8.53125 -7.79222,2.05259 -15.5652,4.24487 -23.4375,5.96875 -6.19239,1.38552 -12.58176,1.0296 -18.875,1.0625 -13.52069,0.0773 -26.69783,-3.45541 -39.53125,-7.375 -6.02576,-1.81322 -11.538,-4.89483 -17.1875,-7.59375 -5.2751,-2.52631 -10.38224,-5.36982 -15.28125,-8.5625 -5.91502,-3.89535 -12.05671,-7.47947 -17.625,-11.875 -3.20549,-2.55442 -6.61841,-4.9244 -10.34375,-6.65625 -0.92839,-0.48744 -1.97876,-0.81259 -3,-0.71875 z m 0.6875,44.71875 c 0.17369,-0.0149 0.35357,-0.005 0.53125,0 0.40611,0.0122 0.82011,0.0844 1.25,0.21875 5.158,2.20268 9.99023,5.25149 14.09375,9.09375 2.86085,2.75063 6.84067,3.70841 10.28125,5.5 8.64418,3.92553 16.81826,9.04526 26.09375,11.40625 8.3345,2.09029 16.37839,5.3794 24.90625,6.6875 3.28033,0.5942 6.6253,0.46861 9.9375,0.78125 10.79961,1.23517 21.71389,0.58221 32.46875,-0.75 7.15529,-1.27277 14.02472,-3.70791 21.03125,-5.59375 6.2059,-1.74267 12.32878,-3.86397 18.0625,-6.84375 8.11784,-4.01025 16.76272,-7.11745 24.1875,-12.40625 3.26878,-2.21694 6.38429,-4.78254 10.0625,-6.3125 1.67734,-0.78598 3.20477,0.74201 4.4375,1.6875 6.63085,6.13931 12.54046,13.02113 19.5,18.8125 11.31921,10.64082 22.75394,21.17449 34.25,31.625 10.53057,10.29797 21.89035,19.69605 32.5,29.90625 1.80695,1.4402 1.68737,4.35737 -0.15625,5.71875 -3.95572,3.62352 -6.97586,8.05306 -10.34375,12.1875 -6.71752,7.64969 -12.1733,16.27672 -17.625,24.84375 -4.20006,6.18819 -6.83156,13.21288 -10.28125,19.8125 -2.9447,5.47875 -3.76837,11.91911 -7.5625,16.96875 -157.30025,-0.20505 -314.60666,-0.0118 -471.90625,-0.0937 -2.26499,0.24803 -3.95686,-1.56698 -4.4375,-3.625 -1.91732,-6.8173 -5.60737,-12.90348 -8.375,-19.375 -2.68342,-6.03809 -5.71943,-11.91545 -9.40625,-17.40625 -4.1365,-6.17323 -7.45885,-12.97016 -12.53125,-18.46875 -3.72066,-4.27387 -7.88593,-8.16421 -11.5,-12.53125 -1.12623,-1.46335 -3.29866,-2.26716 -3.71875,-4.15625 0.9838,-3.50765 4.32812,-5.5365 6.75,-8 8.52702,-8.3487 17.19697,-16.55245 26.125,-24.46875 6.44191,-4.63835 11.44144,-10.85549 17.4375,-16 6.57373,-5.35844 11.96114,-11.93345 18.21875,-17.625 7.1492,-6.10755 13.50229,-13.1714 21.09375,-18.75 1.64182,-1.38667 3.81294,-0.94506 5.4375,0.21875 12.20362,8.12717 25.7403,13.91847 38.96875,20.125 10.65328,3.77243 21.31423,7.63446 32.4375,9.8125 9.6595,1.22617 19.4651,1.73767 29.1875,0.96875 5.41341,-0.68628 10.93557,-0.34112 16.28125,-1.59375 8.43065,-1.86233 16.57388,-4.73426 24.8125,-7.28125 8.52223,-2.90545 16.21745,-7.70803 24.4375,-11.3125 5.89725,-2.36304 10.56747,-6.7984 16.03125,-9.9375 2.25542,-1.21572 4.42583,-3.62004 7.03125,-3.84375 z M 201.43751,552.45593 c 11.68451,0.0212 23.37926,0.0886 35.0625,0.0313 116.09747,-2e-5 232.18366,-2e-4 348.28125,0 16.56959,0.0512 33.14908,-0.11124 49.71875,0.0937 -2.43926,15.25276 -1.99076,30.734 -1.8125,46.125 0.0638,1.86879 0.34326,3.7381 0.90625,5.53125 5.86669,14.34155 9.54147,29.43986 14.90625,43.96875 3.34137,10.03908 8.42284,19.36378 12,29.3125 1.75764,5.27301 5.65572,9.47944 7.4375,14.75 3.3696,8.75414 7.50809,17.23296 10.0625,26.28125 1.2211,3.76719 2.59039,7.51001 3.8125,11.28125 3.93093,15.71173 8.33939,31.73366 7.15625,48.09375 -1.20982,6.76626 -1.90628,13.63647 -3.5625,20.3125 -2.80452,7.29529 -4.66748,15.02223 -8.53125,21.875 -3.00945,5.69419 -6.8503,10.92465 -9.5625,16.78125 -1.43215,3.37892 -4.67583,5.36886 -7,8.0625 -7.75282,8.85521 -16.57726,16.64719 -25.28125,24.53125 -2.48551,1.88152 -5.41682,3.05009 -8,4.78125 -5.16901,3.35126 -10.15625,7.00652 -15.65625,9.8125 -5.89805,2.92959 -12.03722,5.3763 -18.03125,8.09375 -6.6911,2.99008 -13.97566,4.1162 -20.96875,6.15625 -3.72847,1.04124 -7.5733,1.59821 -11.40625,2.0625 -7.31539,0.8627 -14.47932,2.87954 -21.875,3.03125 -6.00345,0.0185 -11.77493,1.85556 -17.71875,2.40625 -6.26584,0.44977 -12.55587,0.98539 -18.6875,2.40625 -5.38857,1.24247 -10.99202,0.89714 -16.34375,2.34375 -4.7378,1.25007 -9.64763,1.54644 -14.4375,2.5 -10.6652,2.94993 -21.21456,6.40791 -31.8125,9.5625 -10.37185,6.09006 -21.25209,11.42122 -31,18.53125 -3.04972,2.06539 -5.43202,5.87617 -9.34375,6.125 -2.97767,-1.51769 -5.27756,-4.01201 -7.8125,-6.125 -8.28026,-7.18774 -18.97436,-10.65198 -27.71875,-17.15625 -2.89849,-2.2166 -6.65332,-2.42032 -10.03125,-3.4375 -7.3894,-2.09279 -14.78664,-4.22851 -22.03125,-6.78125 -4.65093,-1.64058 -9.64206,-1.48122 -14.4375,-2.40625 -3.78432,-0.73647 -7.56315,-1.60991 -11.40625,-1.96875 -7.56817,-0.60084 -14.98281,-2.36007 -22.53125,-3.125 -7.96355,-0.72131 -15.79859,-2.46924 -23.78125,-3 -7.68183,-0.62369 -15.15556,-2.56176 -22.8125,-3.375 -10.08885,-1.53493 -19.94202,-4.43213 -29.5625,-7.78125 -8.9001,-3.81605 -17.78268,-7.76639 -26.03125,-12.875 -6.08566,-3.6457 -12.78951,-6.59352 -17.78125,-11.78125 -4.03423,-4.19425 -9.01263,-7.29627 -13.0625,-11.46875 -4.13563,-4.06845 -7.44013,-8.88455 -11.65625,-12.875 -2.24971,-2.09172 -4.15657,-4.54492 -5.4375,-7.34375 -3.69527,-7.6698 -9.33105,-14.28138 -12.3125,-22.3125 -3.84043,-10.37497 -7.93237,-21.00308 -8.03125,-32.21875 -0.74663,-6.47585 -0.90087,-12.99781 -0.0313,-19.46875 -0.0207,-5.0686 0.94742,-10.04733 2.3125,-14.90625 2.33225,-12.43642 6.53075,-24.4045 10.4375,-36.40625 3.35049,-7.67808 6.07626,-15.61575 9.875,-23.09375 5.80806,-9.46089 8.97504,-20.18172 13.59375,-30.21875 4.83861,-11.45076 8.16499,-23.46603 12.15625,-35.21875 1.76877,-5.24739 2.95604,-10.71118 5.59375,-15.625 0.86503,-1.85914 2.26425,-3.74667 1.78125,-5.90625 -0.63639,-3.92266 -0.72665,-7.9502 -0.0625,-11.875 1.07301,-7.42387 -0.20981,-14.84069 -0.6875,-22.25 -0.52566,-4.55925 -1.59864,-9.07021 -1.90625,-13.65625 11.68036,-0.20486 23.37799,-0.20873 35.0625,-0.1875 z"
       id="path3024-1-4"
       inkscape:connector-curvature="0" />
    <path
       style="fill:#cc4307;fill-opacity:1;fill-rule:nonzero;stroke:#cc4307;stroke-opacity:1"
       d="m 399.15625,305.89343 c -0.61275,0.0563 -1.21048,0.255 -1.75,0.65625 -6.5435,4.13673 -12.51046,9.20105 -19.34375,12.90625 -6.29032,3.70493 -11.76188,8.7126 -18.5,11.65625 -7.39389,3.30572 -14.60496,7.0581 -22.28125,9.6875 -10.5794,3.54043 -21.39643,6.75589 -32.5625,7.6875 -5.95338,0.31741 -11.91781,0.1591 -17.875,0.125 -10.16698,0.046 -19.59902,-4.17311 -29.34375,-6.46875 -8.29845,-1.88156 -15.53213,-6.53253 -23.375,-9.625 -4.51335,-1.7298 -8.77111,-4.06355 -12.65625,-6.9375 -6.83902,-5.01624 -14.4486,-8.80883 -21.6875,-13.1875 -2.73892,-1.55009 -5.35734,-3.40685 -8.3125,-4.53125 -1.46499,-0.55682 -2.71331,0.63887 -3.90625,1.28125 -4.37122,2.68869 -7.888,6.45845 -11.25,10.28125 -4.32385,4.88661 -9.70204,8.64584 -14.4375,13.09375 -17.23826,16.87992 -34.68708,33.58373 -52.90625,49.40625 -13.221643,13.15202 -26.65308,26.07998 -40.59375,38.46875 -6.194884,4.64086 -11.657385,10.14329 -16.96875,15.75 9.780302,5.84227 17.686511,14.14635 25.53125,22.28125 4.248321,4.6297 8.991923,8.81203 12.9375,13.71875 5.12268,6.41766 9.523688,13.40019 13.125,20.78125 4.7181,9.63599 9.99004,19.07865 13.34375,29.3125 4.00422,11.03655 6.86952,22.45987 8.46875,34.09375 1.51596,8.41016 2.04709,17.00481 1.375,25.53125 -1.78501,14.02977 -6.96888,27.25802 -11.21875,40.65625 -4.89885,16.75929 -12.8223,32.37748 -19.25,48.5625 -1.794411,4.55263 -4.049841,8.91596 -6.3125,13.25 -4.374223,8.27852 -7.027442,17.28763 -10.28125,26.03125 -4.692034,12.97701 -7.728552,26.46441 -10.59375,39.9375 -1.252557,6.11117 -0.491876,12.39255 -1.53125,18.53125 -0.69597,4.45924 -0.640515,8.98406 0.09375,13.4375 1.335516,9.32027 1.472425,18.90619 4.40625,27.9375 2.117228,6.32648 4.609415,12.52021 6.65625,18.875 2.537697,7.77311 7.755031,14.18551 11.6875,21.25 2.681221,4.62467 4.648161,9.82221 8.65625,13.53125 7.89769,7.55085 14.01444,16.79495 22.5,23.75 7.58212,6.37078 14.76878,13.31652 23.15625,18.65625 7.83319,5.00886 15.50003,10.33718 23.96875,14.25 10.54466,4.89529 21.08302,10.1142 32.4375,12.875 3.98878,1.06358 7.95231,2.17893 11.90625,3.375 6.32827,1.99118 13.03191,2.13492 19.5,3.46875 7.2453,1.47052 14.67185,1.59343 21.9375,2.9375 6.41316,1.18333 12.92587,1.57157 19.40625,2.21875 14.70251,1.80886 29.22998,4.80316 43.9375,6.5625 3.8297,0.59822 7.42602,2.08258 11.125,3.1875 8.76795,2.71434 17.84551,4.96235 25.8125,9.6875 13.6089,8.49473 28.62368,16.16105 37.90625,29.78125 2.1638,2.8146 4.23527,7.13002 8.5,6.50002 2.42966,0.344 3.35462,-2.25735 4.46875,-3.87502 2.45867,-4.3979 5.10559,-8.87054 9.1875,-11.96875 6.94651,-5.33761 13.80435,-10.89037 21.5625,-15.03125 5.88068,-3.1755 11.59838,-6.76614 17.90625,-9.0625 8.93468,-3.40555 18.0466,-6.35956 27.3125,-8.71875 11.38285,-1.75657 22.71509,-3.92665 34.15625,-5.3125 10.62328,-2.4628 21.63992,-1.88987 32.3125,-4.03125 6.73664,-1.28195 13.62267,-1.37718 20.34375,-2.78125 6.66502,-1.4022 13.56278,-1.55092 20.09375,-3.59375 5.80971,-1.75487 11.67318,-3.40078 17.5625,-4.875 5.11199,-1.27384 9.77243,-3.75072 14.53125,-5.9375 5.68294,-2.66794 11.66698,-4.70268 17.125,-7.84375 7.5427,-4.32987 14.55664,-9.51756 21.90625,-14.15625 6.21783,-3.81399 11.30847,-9.08308 16.96875,-13.625 10.35084,-8.32204 18.14207,-19.22429 27.25,-28.78125 4.37886,-5.09851 6.93739,-11.39287 10.5625,-17 3.54596,-5.55177 7.07807,-11.23385 8.90625,-17.625 2.50346,-8.72057 6.96338,-16.88356 7.96875,-26 1.39143,-11.5006 4.39147,-23.02362 2.46875,-34.65625 -0.2959,-13.92427 -4.07444,-27.39949 -7.3125,-40.84375 -2.70242,-9.65432 -6.57635,-18.89725 -9.625,-28.4375 -3.07672,-9.9053 -8.98199,-18.55497 -12.71875,-28.1875 -7.74084,-17.90756 -15.51286,-35.8729 -20.90625,-54.65625 -3.38901,-11.38097 -8.77453,-22.55974 -8.4375,-34.6875 0.0879,-9.08578 -0.51815,-18.30792 1.65625,-27.21875 3.00607,-16.98476 8.23898,-33.65278 16.03125,-49.0625 4.22457,-9.73998 10.51277,-18.31676 16.25,-27.1875 6.15837,-8.21705 12.2389,-16.70903 20.3125,-23.1875 4.56083,-3.70446 8.95512,-7.63874 12.96875,-11.9375 l 0,-12.1875 c -3.10365,-4.16166 -7.37452,-7.15772 -11,-10.8125 -2.65318,-2.6538 -5.20027,-5.44232 -8.03125,-7.90625 -13.84673,-11.61321 -26.30804,-24.77088 -39.96875,-36.59375 -3.73549,-3.38965 -7.4,-6.84143 -11.28125,-10.0625 -6.48839,-5.34586 -11.64213,-12.07262 -17.9375,-17.625 -9.1694,-7.99889 -17.43049,-16.94934 -26.375,-25.1875 -4.91043,-5.40204 -10.33697,-10.37347 -16.625,-14.125 -0.8037,-0.50927 -1.61716,0.47356 -2.34375,0.71875 -14.10048,9.34223 -27.98672,19.32666 -43.59375,26.0625 -6.59949,2.86707 -12.79952,6.7083 -19.8125,8.53125 -7.79222,2.05259 -15.5652,4.24487 -23.4375,5.96875 -6.19239,1.38552 -12.58176,1.0296 -18.875,1.0625 -13.52069,0.0773 -26.69783,-3.45541 -39.53125,-7.375 -6.02576,-1.81322 -11.538,-4.89483 -17.1875,-7.59375 -5.2751,-2.52631 -10.38224,-5.36982 -15.28125,-8.5625 -5.91502,-3.89535 -12.05671,-7.47947 -17.625,-11.875 -3.20549,-2.55442 -6.61841,-4.9244 -10.34375,-6.65625 -0.92839,-0.48744 -1.97876,-0.81259 -3,-0.71875 z m 0.6875,44.71875 c 0.17369,-0.0149 0.35357,-0.005 0.53125,0 0.40611,0.0122 0.82011,0.0844 1.25,0.21875 5.158,2.20268 9.99023,5.25149 14.09375,9.09375 2.86085,2.75063 6.84067,3.70841 10.28125,5.5 8.64418,3.92553 16.81826,9.04526 26.09375,11.40625 8.3345,2.09029 16.37839,5.3794 24.90625,6.6875 3.28033,0.5942 6.6253,0.46861 9.9375,0.78125 10.79961,1.23517 21.71389,0.58221 32.46875,-0.75 7.15529,-1.27277 14.02472,-3.70791 21.03125,-5.59375 6.2059,-1.74267 12.32878,-3.86397 18.0625,-6.84375 8.11784,-4.01025 16.76272,-7.11745 24.1875,-12.40625 3.26878,-2.21694 6.38429,-4.78254 10.0625,-6.3125 1.67734,-0.78598 3.20477,0.74201 4.4375,1.6875 6.63085,6.13931 12.54046,13.02113 19.5,18.8125 11.31921,10.64082 22.75394,21.17449 34.25,31.625 10.53057,10.29797 21.89035,19.69605 32.5,29.90625 1.80695,1.4402 1.68737,4.35737 -0.15625,5.71875 -3.95572,3.62352 -6.97586,8.05306 -10.34375,12.1875 -6.71752,7.64969 -12.1733,16.27672 -17.625,24.84375 -4.20006,6.18819 -6.83156,13.21288 -10.28125,19.8125 -2.9447,5.47875 -3.76837,11.91911 -7.5625,16.96875 -157.30025,-0.20505 -314.60666,-0.0118 -471.90625,-0.0937 -2.26499,0.24803 -3.95686,-1.56698 -4.4375,-3.625 -1.91732,-6.8173 -5.60737,-12.90348 -8.375,-19.375 -2.68342,-6.03809 -5.71943,-11.91545 -9.40625,-17.40625 -4.1365,-6.17323 -7.45885,-12.97016 -12.53125,-18.46875 -3.72066,-4.27387 -7.88593,-8.16421 -11.5,-12.53125 -1.12623,-1.46335 -3.29866,-2.26716 -3.71875,-4.15625 0.9838,-3.50765 4.32812,-5.5365 6.75,-8 8.52702,-8.3487 17.19697,-16.55245 26.125,-24.46875 6.44191,-4.63835 11.44144,-10.85549 17.4375,-16 6.57373,-5.35844 11.96114,-11.93345 18.21875,-17.625 7.1492,-6.10755 13.50229,-13.1714 21.09375,-18.75 1.64182,-1.38667 3.81294,-0.94506 5.4375,0.21875 12.20362,8.12717 25.7403,13.91847 38.96875,20.125 10.65328,3.77243 21.31423,7.63446 32.4375,9.8125 9.6595,1.22617 19.4651,1.73767 29.1875,0.96875 5.41341,-0.68628 10.93557,-0.34112 16.28125,-1.59375 8.43065,-1.86233 16.57388,-4.73426 24.8125,-7.28125 8.52223,-2.90545 16.21745,-7.70803 24.4375,-11.3125 5.89725,-2.36304 10.56747,-6.7984 16.03125,-9.9375 2.25542,-1.21572 4.42583,-3.62004 7.03125,-3.84375 z M 201.4375,552.45593 c 11.68451,0.0212 23.37926,0.0886 35.0625,0.0313 116.09747,-2e-5 232.18366,-2e-4 348.28125,0 16.56959,0.0512 33.14908,-0.11124 49.71875,0.0937 -2.43926,15.25276 -1.99076,30.734 -1.8125,46.125 0.0638,1.86879 0.34326,3.7381 0.90625,5.53125 5.86669,14.34155 9.54147,29.43986 14.90625,43.96875 3.34137,10.03908 8.42284,19.36378 12,29.3125 1.75764,5.27301 5.65572,9.47944 7.4375,14.75 3.3696,8.75414 7.50809,17.23296 10.0625,26.28125 1.2211,3.76719 2.59039,7.51001 3.8125,11.28125 3.93093,15.71173 8.33939,31.73366 7.15625,48.09375 -1.20982,6.76626 -1.90628,13.63647 -3.5625,20.3125 -2.80452,7.29529 -4.66748,15.02223 -8.53125,21.875 -3.00945,5.69419 -6.8503,10.92465 -9.5625,16.78125 -1.43215,3.37892 -4.67583,5.36886 -7,8.0625 -7.75282,8.85521 -16.57726,16.64719 -25.28125,24.53125 -2.48551,1.88152 -5.41682,3.05009 -8,4.78125 -5.16901,3.35126 -10.15625,7.00652 -15.65625,9.8125 -5.89805,2.92959 -12.03722,5.3763 -18.03125,8.09375 -6.6911,2.99008 -13.97566,4.1162 -20.96875,6.15625 -3.72847,1.04124 -7.5733,1.59821 -11.40625,2.0625 -7.31539,0.8627 -14.47932,2.87954 -21.875,3.03125 -6.00345,0.0185 -11.77493,1.85556 -17.71875,2.40625 -6.26584,0.44977 -12.55587,0.98539 -18.6875,2.40625 -5.38857,1.24247 -10.99202,0.89714 -16.34375,2.34375 -4.7378,1.25007 -9.64763,1.54644 -14.4375,2.5 -10.6652,2.94993 -21.21456,6.40791 -31.8125,9.5625 -10.37185,6.09006 -21.25209,11.42122 -31,18.53125 -3.04972,2.06539 -5.43202,5.87617 -9.34375,6.125 -2.97767,-1.51769 -5.27756,-4.01201 -7.8125,-6.125 -8.28026,-7.18774 -18.97436,-10.65198 -27.71875,-17.15625 -2.89849,-2.2166 -6.65332,-2.42032 -10.03125,-3.4375 -7.3894,-2.09279 -14.78664,-4.22851 -22.03125,-6.78125 -4.65093,-1.64058 -9.64206,-1.48122 -14.4375,-2.40625 -3.78432,-0.73647 -7.56315,-1.60991 -11.40625,-1.96875 -7.56817,-0.60084 -14.98281,-2.36007 -22.53125,-3.125 -7.96355,-0.72131 -15.79859,-2.46924 -23.78125,-3 -7.68183,-0.62369 -15.15556,-2.56176 -22.8125,-3.375 -10.08885,-1.53493 -19.94202,-4.43213 -29.5625,-7.78125 -8.9001,-3.81605 -17.78268,-7.76639 -26.03125,-12.875 -6.08566,-3.6457 -12.78951,-6.59352 -17.78125,-11.78125 -4.03423,-4.19425 -9.01263,-7.29627 -13.0625,-11.46875 -4.13563,-4.06845 -7.44013,-8.88455 -11.65625,-12.875 -2.24971,-2.09172 -4.15657,-4.54492 -5.4375,-7.34375 -3.69527,-7.6698 -9.33105,-14.28138 -12.3125,-22.3125 -3.84043,-10.37497 -7.93237,-21.00308 -8.03125,-32.21875 -0.74663,-6.47585 -0.90087,-12.99781 -0.0313,-19.46875 -0.0207,-5.0686 0.94742,-10.04733 2.3125,-14.90625 2.33225,-12.43642 6.53075,-24.4045 10.4375,-36.40625 3.35049,-7.67808 6.07626,-15.61575 9.875,-23.09375 5.80806,-9.46089 8.97504,-20.18172 13.59375,-30.21875 4.83861,-11.45076 8.16499,-23.46603 12.15625,-35.21875 1.76877,-5.24739 2.95604,-10.71118 5.59375,-15.625 0.86503,-1.85914 2.26425,-3.74667 1.78125,-5.90625 -0.63639,-3.92266 -0.72665,-7.9502 -0.0625,-11.875 1.07301,-7.42387 -0.20981,-14.84069 -0.6875,-22.25 -0.52566,-4.55925 -1.59864,-9.07021 -1.90625,-13.65625 11.68036,-0.20486 23.37799,-0.20873 35.0625,-0.1875 z"
       id="path3024-1"
       inkscape:connector-curvature="0" />
    <text
       xml:space="preserve"
       style="font-size:106.7347641px;font-style:normal;font-weight:bold;line-height:125%;letter-spacing:0px;word-spacing:0px;fill:#3371a3;fill-opacity:1;stroke:#ffffff;stroke-opacity:1;font-family:Sans;-inkscape-font-specification:Sans Bold"
       x="304.13495"
       y="478.93582"
       id="text3182-7"
       sodipodi:linespacing="125%"><tspan
         sodipodi:role="line"
         id="tspan3184-4"
         x="304.13495"
         y="478.93582"
         style="font-size:106.7347641px;font-weight:bold;line-height:100%;fill:#3371a3;fill-opacity:1;stroke:#ffffff;stroke-opacity:1;-inkscape-font-specification:Sans Bold">MY</tspan><tspan
         sodipodi:role="line"
         x="304.13495"
         y="585.67059"
         id="tspan3186-0" /></text>
    <text
       xml:space="preserve"
       style="font-size:106.7347641px;font-style:normal;font-weight:bold;line-height:125%;letter-spacing:0px;word-spacing:0px;fill:#3371a3;fill-opacity:1;stroke:#ffffff;stroke-opacity:1;font-family:Sans;-inkscape-font-specification:Sans Bold"
       x="156.61148"
       y="731.23615"
       id="text3188-9"
       sodipodi:linespacing="125%"><tspan
         sodipodi:role="line"
         id="tspan3190-4"
         x="156.61148"
         y="731.23615">ROUTES</tspan></text>
    <path
       style="fill:#ffffff;fill-opacity:1;stroke:#ffffff;stroke-opacity:1"
       d="m 392.55092,941.02185 c -6.50702,-4.99098 -17.98053,-11.98048 -28.70974,-17.48954 -5.24971,-2.69556 -28.97203,-9.8364 -37.88072,-11.40278 -12.31828,-2.16589 -25.75498,-4.15791 -44.95179,-6.66423 -58.88502,-7.68798 -68.73053,-10.25646 -95.77238,-24.98493 -16.11266,-8.77583 -20.97242,-12.50096 -35.77793,-27.42465 -9.86072,-9.93944 -13.10927,-14.03436 -18.83209,-23.73859 -6.78243,-11.50101 -12.65947,-25.44673 -15.37175,-36.47591 -0.87347,-3.55184 -1.34878,-11.38567 -1.31774,-21.71828 0.0419,-13.94913 0.41271,-17.63848 2.70783,-26.94109 4.08436,-16.55477 10.48725,-35.34661 16.61798,-48.77214 13.23704,-28.98742 18.01242,-40.76676 25.20498,-62.17259 4.20034,-12.50064 8.30782,-24.04483 9.12774,-25.65376 2.69998,-5.29816 2.44355,-42.67831 -0.35933,-52.38053 -0.48532,-1.67995 11.07202,-1.76776 232.66958,-1.76776 l 233.18026,0 -0.38211,23.99112 -0.38211,23.99112 7.85016,23.73859 c 7.94505,24.02551 18.47004,50.95777 23.24641,59.48486 3.48255,6.21731 8.62752,18.74508 13.64025,33.21344 15.99067,46.15425 14.69986,73.57039 -5.16678,109.73943 -6.14661,11.19046 -7.36984,12.69589 -21.36367,26.29227 -16.71172,16.23707 -29.28071,24.94414 -48.79586,33.80294 -18.66041,8.4708 -34.96868,12.15366 -74.24621,16.76687 -15.85146,1.86177 -36.0734,4.75173 -49.08358,7.01463 -4.49482,0.78179 -15.16844,3.54773 -23.71916,6.14653 -12.80773,3.89263 -17.7164,5.97921 -27.86169,11.84352 -6.77323,3.91513 -15.19149,9.30815 -18.70726,11.98449 -3.51577,2.67632 -6.88271,4.88258 -7.48207,4.90279 -0.59937,0.0202 -4.23592,-2.37641 -8.08122,-5.32582 l 0,0 z M 298.25046,731.65877 c 10.76633,-3.10717 18.15497,-9.79244 23.36967,-21.14498 2.03595,-4.43233 2.31529,-6.59685 2.2813,-17.67767 -0.0324,-10.57076 -0.3992,-13.53161 -2.25234,-18.18275 -5.89088,-14.78529 -18.76635,-22.6315 -37.10488,-22.61141 -19.4805,0.0213 -31.9587,7.67252 -38.23457,23.44405 -4.04977,10.17726 -3.1559,28.67052 1.86235,38.52964 4.35587,8.55778 13.79838,15.84606 23.48865,18.12988 6.33072,1.49203 20.64102,1.23007 26.58982,-0.48676 l 0,0 z m 93.19632,-1.8229 c 3.12852,-1.53064 7.07424,-4.45872 8.76829,-6.50684 5.56019,-6.72233 6.24572,-10.94006 6.80326,-41.85713 l 0.50551,-28.03173 -10.65635,0 -10.65634,0 -0.32584,27.02158 c -0.29686,24.61745 -0.50559,27.38107 -2.34615,31.06219 -1.60244,3.20487 -2.90828,4.32161 -6.31346,5.39916 -5.49645,1.73933 -11.7136,-0.0273 -14.80975,-4.20823 -2.0024,-2.70397 -2.12621,-4.29221 -2.42137,-31.06219 l -0.31105,-28.21251 -10.62916,0 -10.62915,0 0.33469,29.04189 c 0.32048,27.80801 0.43352,29.25647 2.66062,34.09264 5.73377,12.45096 14.65166,16.85228 33.12681,16.34934 9.82667,-0.26751 11.91371,-0.64889 16.89944,-3.08817 l 0,0 z m 222.56563,1.90047 c 11.9921,-3.56127 16.92618,-10.3151 16.98029,-23.24286 0.0592,-14.14524 -5.08485,-19.77759 -21.68445,-23.74271 -19.68478,-4.70209 -22.17793,-6.11611 -20.75807,-11.77328 1.46282,-5.82832 17.08284,-7.0916 30.26012,-2.4473 3.28159,1.15659 6.34992,2.10288 6.81853,2.10288 0.46861,0 0.85202,-3.80987 0.85202,-8.46638 l 0,-8.46638 -4.47413,-1.12659 c -8.6139,-2.16901 -24.01462,-3.3313 -30.37614,-2.2925 -8.24653,1.34663 -10.82404,2.46835 -15.61262,6.79455 -7.00862,6.33186 -9.0491,18.68694 -4.62387,27.9975 2.83073,5.95578 8.93866,9.46621 22.51032,12.93741 6.52757,1.66955 12.88388,3.69871 14.12511,4.50926 5.53041,3.61141 3.29852,10.63508 -4.02187,12.65675 -7.33598,2.02599 -17.55097,-0.0984 -32.83266,-6.82807 -0.95826,-0.42199 -1.26269,1.65506 -1.26269,8.61518 l 0,9.17122 5.39747,1.56909 c 13.06113,3.79697 29.80035,4.67593 38.70264,2.03223 l 0,0 z m -426.94793,-14.15148 0,-14.64722 5.20717,0 c 4.71376,0 5.5513,0.36256 8.83884,3.82618 2.05845,2.1687 5.77147,8.51378 8.57126,14.64721 l 4.93958,10.82104 11.40952,0 11.4095,0 -5.0749,-10.85914 c -6.38463,-13.66169 -11.27008,-21.75964 -14.78324,-24.50412 -2.15416,-1.68284 -2.4152,-2.26687 -1.2233,-2.73693 0.83337,-0.32866 3.17617,-2.24849 5.20622,-4.26628 6.43407,-6.39522 7.59928,-17.70221 2.71908,-26.38537 -1.65087,-2.93733 -3.77838,-4.76981 -7.87172,-6.78012 -5.52093,-2.71141 -5.964,-2.75995 -28.08532,-3.07684 l -22.47589,-0.32198 0,39.46539 0,39.46539 10.6066,0 10.6066,0 0,-14.64721 z m 275.77165,-16.66752 0,-31.31473 13.13199,0 13.13198,0 0,-8.08122 0,-8.08122 -36.36549,0 -36.3655,0 0,8.08122 0,8.08122 12.62691,0 12.62691,0 0,31.31473 0,31.31473 10.6066,0 10.6066,0 0,-31.31473 z m 91.92389,23.23351 0,-8.08122 -17.67767,0 -17.67767,0 0,-8.5863 0,-8.5863 16.16244,0 16.16244,0 0,-8.08122 0,-8.08122 -16.16244,0 -16.16244,0 0,-6.56599 0,-6.56599 17.17259,0 17.17259,0 0,-8.08122 0,-8.08122 -27.77919,0 -27.7792,0 0,39.39595 0,39.39595 28.28427,0 28.28428,0 0,-8.08122 z"
       id="path3803"
       inkscape:connector-curvature="0" />
    <path
       style="fill:#ffffff;fill-opacity:1;stroke:none;filter:url(#filter3948)"
       d="m 278.57795,717.0899 c -4.48238,-1.41992 -9.46252,-6.8818 -11.2891,-12.38112 -2.54008,-7.64746 -2.12157,-19.78234 0.91068,-26.40565 3.11087,-6.79503 7.39684,-9.93578 14.34497,-10.51197 12.88757,-1.06874 20.18226,8.31115 20.031,25.7569 -0.12428,14.33555 -6.04764,22.88125 -16.63749,24.00313 -2.43334,0.25778 -5.74537,0.0502 -7.36006,-0.46129 l 0,0 z"
       id="path3805"
       inkscape:connector-curvature="0" />
    <path
       style="fill:#ffffff;fill-opacity:1;stroke:none"
       d="m 187.06448,678.18891 0,-9.82444 7.19286,0.40644 c 6.34879,0.35873 7.4749,0.73434 9.59645,3.20078 3.1743,3.69034 3.1743,8.74409 0,12.43444 -2.12155,2.46644 -3.24766,2.84204 -9.59645,3.20078 l -7.19286,0.40643 0,-9.82443 z"
       id="path3807"
       inkscape:connector-curvature="0" />
    <path
       style="fill:#ffffff;fill-opacity:1;stroke:#ffffff;stroke-opacity:1"
       d="m 160.49832,506.71551 c -9.092,-22.62286 -22.45449,-44.85365 -35.3041,-58.73441 -5.03081,-5.43453 -8.61328,-10.1301 -8.31726,-10.90151 0.28599,-0.74529 7.88977,-8.16735 16.89728,-16.49347 9.00751,-8.32612 23.55838,-21.95693 32.33527,-30.29069 26.86877,-25.51222 39.51056,-36.87057 41.03676,-36.87057 0.80241,0 4.90815,2.01832 9.12386,4.48516 18.10571,10.59464 43.76511,21.07746 62.21316,25.4164 8.26773,1.94455 35.21967,2.19979 46.24814,0.43798 18.6592,-2.98082 46.74186,-14.37584 64.91877,-26.3419 5.02782,-3.30987 9.70971,-6.01795 10.40422,-6.01795 2.01038,0 7.31246,2.95193 12.77916,7.11478 8.12372,6.18615 31.35064,16.61719 46.99925,21.10702 30.622,8.78593 59.0608,7.41915 90.00694,-4.32578 10.73477,-4.07414 27.5344,-12.28962 33.82825,-16.54294 11.05041,-7.46776 9.38605,-7.6803 19.89644,2.54073 5.10363,4.96313 25.18923,23.67861 44.63467,41.58996 19.44543,17.91136 35.51236,33.25356 35.70429,34.09378 0.19193,0.84023 -1.46251,3.40738 -3.67653,5.70478 -5.97293,6.19787 -20.20755,25.4754 -25.93206,35.11901 -2.75879,4.64751 -6.99486,12.99661 -9.4135,18.55355 -2.41865,5.55694 -5.04072,11.58088 -5.82683,13.38653 l -1.42929,3.28299 -237.29477,0 -237.29478,0 -2.53734,-6.31345 0,0 z m 173.03829,-51.85449 c 0,-19.22169 0.28116,-24.7392 1.2443,-24.41816 0.68437,0.22813 4.45796,7.88003 8.38574,17.00424 l 7.14144,16.58946 6.9671,0 6.9671,0 7.14144,-16.58946 c 3.92778,-9.12421 7.70137,-16.77611 8.38574,-17.00424 0.96314,-0.32104 1.24431,5.19647 1.24431,24.41816 l 0,24.83291 10.10152,0 10.10153,0 0,-39.39595 0,-39.39595 -13.40273,0 -13.40271,0 -8.06303,18.85684 c -4.43466,10.37126 -8.51759,19.00061 -9.07317,19.17632 -0.55558,0.17571 -4.6467,-8.30305 -9.09137,-18.8417 l -8.08122,-19.16118 -13.38452,-0.0151 -13.38453,-0.0151 0,39.39595 0,39.39595 10.10153,0 10.10153,0 0,-24.83291 z m 126.26906,8.16183 0,-16.67109 14.64722,-22.28506 c 8.05596,-12.25678 14.64721,-22.48297 14.64721,-22.72487 0,-0.24189 -5.16878,-0.4398 -11.48617,-0.4398 l -11.48616,0 -8.33278,13.11684 c -4.58303,7.21426 -8.62569,12.9358 -8.9837,12.71454 -0.35801,-0.22126 -4.27681,-6.12384 -8.70843,-13.11684 l -8.0575,-12.71454 -11.37365,0 c -6.25551,0 -11.37366,0.29497 -11.37366,0.65548 0,0.36052 6.59124,10.62869 14.64721,22.81817 l 14.64721,22.16268 0,16.57778 0,16.57779 10.6066,0 10.6066,0 0,-16.67108 z"
       id="path3809"
       inkscape:connector-curvature="0" />
    <path
       style="fill:#ffffff;stroke:none;fill-opacity:1"
       d="m 273.90588,463.12924 c -6.13783,-3.74284 -8.45759,-10.25292 -8.45759,-23.73504 0,-9.33077 0.58357,-12.3669 3.1792,-16.54042 5.19241,-8.3489 15.67495,-10.97236 24.86115,-6.22199 13.11514,6.7821 13.11514,40.17128 0,46.95338 -5.82082,3.01007 -14.2196,2.81452 -19.58276,-0.45593 l 0,0 z"
       id="path3010"
       inkscape:connector-curvature="0"
       transform="translate(0,252.36218)" />
  </g>
  <g
     inkscape:groupmode="layer"
     id="layer2"
     inkscape:label="Ebene"
     transform="translate(0,-252.36218)" />
</svg>
