<?xml version="1.0" encoding="UTF-8" standalone="no"?>
<svg
   xmlns:dc="http://purl.org/dc/elements/1.1/"
   xmlns:cc="http://creativecommons.org/ns#"
   xmlns:rdf="http://www.w3.org/1999/02/22-rdf-syntax-ns#"
   xmlns:svg="http://www.w3.org/2000/svg"
   xmlns="http://www.w3.org/2000/svg"
   xmlns:sodipodi="http://sodipodi.sourceforge.net/DTD/sodipodi-0.dtd"
   xmlns:inkscape="http://www.inkscape.org/namespaces/inkscape"
   width="789pt"
   height="789pt"
   viewBox="0 0 789 789"
   version="1.1"
   id="svg3014"
   inkscape:version="0.48.2 r9819"
   sodipodi:docname="MyRoutes.svg">
  <metadata
     id="metadata3128">
    <rdf:RDF>
      <cc:Work
         rdf:about="">
        <dc:format>image/svg+xml</dc:format>
        <dc:type
           rdf:resource="http://purl.org/dc/dcmitype/StillImage" />
        <dc:title />
      </cc:Work>
    </rdf:RDF>
  </metadata>
  <sodipodi:namedview
     pagecolor="#ffffff"
     bordercolor="#666666"
     borderopacity="1"
     objecttolerance="10"
     gridtolerance="10"
     guidetolerance="10"
     inkscape:pageopacity="0"
     inkscape:pageshadow="2"
     inkscape:window-width="1440"
     inkscape:window-height="848"
     id="namedview3126"
     showgrid="false"
     inkscape:snap-bbox="true"
     inkscape:bbox-paths="true"
     inkscape:bbox-nodes="true"
     inkscape:snap-bbox-edge-midpoints="true"
     inkscape:snap-bbox-midpoints="true"
     inkscape:zoom="0.67681501"
     inkscape:cx="500.51254"
     inkscape:cy="493.17249"
     inkscape:window-x="-8"
     inkscape:window-y="-8"
     inkscape:window-maximized="1"
     inkscape:current-layer="svg3014"
     inkscape:snap-global="false" />
  <defs
     id="defs3016">
    <clipPath
       id="clip0">
      <rect
         width="789"
         height="789"
         id="rect3019" />
    </clipPath>
  </defs>
  <path
     inkscape:connector-curvature="0"
     id="path3024"
     d="m 402.25037,5.230896 c 1.61753,-1.202972 3.68765,-0.823654 5.35768,0.053207 4.18834,1.947083 7.9971,4.610688 11.60097,7.48259 6.26032,4.941818 13.16279,8.965531 19.81294,13.345001 5.50787,3.589478 11.25677,6.800736 17.18748,9.641022 6.35163,3.034348 12.54984,6.498505 19.3245,8.537064 14.42839,4.406723 29.26397,8.380981 44.46504,8.294082 7.07538,-0.037 14.24693,0.355149 21.20891,-1.20256 8.8507,-1.938141 17.57222,-4.413437 26.33288,-6.721115 7.88457,-2.0495 14.88323,-6.347687 22.30293,-9.571076 17.5467,-7.572998 33.13755,-18.788543 48.99047,-29.291855 0.81689,-0.275665 1.72595,-1.398513 2.62954,-0.825958 7.06951,4.217774 13.18671,9.81395 18.70743,15.887375 10.05614,9.262009 19.34339,19.329361 29.65239,28.322373 7.07776,6.242446 12.87645,13.792388 20.17122,19.802627 4.36362,3.621414 8.48839,7.514359 12.68813,11.325287 15.35849,13.292236 29.34462,28.09566 44.91224,41.15219 3.18283,2.77016 6.04427,5.87888 9.02719,8.8625 4.07607,4.109 8.88832,7.49923 12.37769,12.1781 l 0,13.68169 c -4.51245,4.83301 -9.43413,9.25952 -14.56178,13.42438 -9.07701,7.28361 -15.92228,16.82219 -22.84603,26.06048 -6.45027,9.97322 -13.53306,19.64675 -18.28267,30.59723 -8.76071,17.32488 -14.62252,36.04781 -18.00219,55.14348 -2.44464,10.01828 -1.78519,20.37908 -1.88408,30.59407 -0.37892,13.63501 5.68828,26.19449 9.49849,38.98992 6.06369,21.11779 14.80337,41.31495 23.50627,61.4481 4.20117,10.82967 10.82239,20.56781 14.28149,31.70416 3.42754,10.72593 7.8132,21.1333 10.85147,31.98748 3.64049,15.11515 7.88337,30.25241 8.21604,45.90722 2.16168,13.07836 -1.23662,26.03749 -2.80098,38.96742 -1.13033,10.24946 -6.14107,19.43938 -8.95566,29.24375 -2.05539,7.18547 -6.02168,13.54452 -10.00833,19.78635 -4.07565,6.30393 -6.95354,13.40652 -11.87663,19.1387 -10.23987,10.74467 -18.98656,22.98947 -30.62381,32.34584 -6.36376,5.10641 -12.09624,11.03731 -19.08684,15.32532 -8.26302,5.21524 -16.13565,11.04505 -24.61577,15.91305 -6.13635,3.53149 -12.86835,5.80293 -19.25757,8.80243 -5.35025,2.45854 -10.60412,5.26231 -16.35145,6.6945 -6.62125,1.65741 -13.19587,3.49144 -19.72763,5.46433 -7.34266,2.29675 -15.10852,2.45614 -22.6019,4.03262 -7.55638,1.57855 -15.3114,1.68691 -22.88527,3.12819 -11.99899,2.40758 -24.377,1.79578 -36.32057,4.56464 -12.86309,1.55813 -25.58631,3.98564 -38.38384,5.96048 -10.41748,2.65239 -20.68257,5.96302 -30.72768,9.79175 -7.09182,2.58178 -13.5,6.63232 -20.11155,10.20251 -8.72235,4.65555 -16.44473,10.88356 -24.25456,16.88446 -4.58922,3.48334 -7.5528,8.50279 -10.31705,13.44727 -1.25258,1.81877 -2.29196,4.76706 -5.02358,4.38031 -4.79476,0.70817 -7.1172,-4.15252 -9.54991,-7.31691 -10.43623,-15.31296 -27.34958,-23.91341 -42.64982,-33.46392 -8.95714,-5.31243 -19.13901,-7.8495 -28.99665,-10.90117 -4.15869,-1.24231 -8.20976,-2.91015 -12.51542,-3.58271 -16.5354,-1.97794 -32.86806,-5.35117 -49.39783,-7.38483 -7.28578,-0.72763 -14.61011,-1.15465 -21.82031,-2.48509 -8.16863,-1.51107 -16.51612,-1.6732 -24.66188,-3.32645 -7.27195,-1.49962 -14.80106,-1.64467 -21.91582,-3.88324 -4.44534,-1.34474 -8.91388,-2.60451 -13.39841,-3.80026 -12.76562,-3.10396 -24.60675,-8.97249 -36.46193,-14.47618 -9.52122,-4.39913 -18.15875,-10.38144 -26.96545,-16.01283 C 108.08302,673.477 100.03069,665.66028 91.506241,658.4977 81.96608,650.67822 75.078629,640.27501 66.199402,631.78574 61.693176,627.61577 59.484283,621.78218 56.469833,616.58269 52.04863,608.64024 46.16687,601.42619 43.313782,592.68703 41.012558,585.54245 38.22522,578.5692 35.844864,571.45644 32.546417,561.3027 32.382172,550.55688 30.880676,540.07828 c -0.825531,-5.00693 -0.890823,-10.11605 -0.108291,-15.1295 1.168548,-6.90163 0.309417,-13.96955 1.717636,-20.84024 3.221298,-15.14754 6.65654,-30.29661 11.931717,-44.88643 3.658188,-9.8303 6.630142,-19.97229 11.548004,-29.27968 2.543869,-4.87268 5.091583,-9.75383 7.109009,-14.87227 7.226562,-18.19653 16.115051,-35.77991 21.622741,-54.62207 4.778046,-15.0634 10.612168,-29.9355 12.619019,-45.70892 0.75563,-9.58612 0.149658,-19.23436 -1.554703,-28.68975 -1.797989,-13.07977 -5.013428,-25.93533 -9.515304,-38.34353 -3.770508,-11.50573 -9.688675,-22.11191 -14.993149,-32.94548 -4.048889,-8.29839 -9.006012,-16.14293 -14.765351,-23.3582 -4.435943,-5.51653 -9.755828,-10.21766 -14.532135,-15.42275 -8.819702,-9.14592 -17.722671,-18.48758 -28.71849,-25.05594 5.971466,-6.30353 12.114288,-12.48131 19.079086,-17.69894 C 47.993713,119.29611 63.09462,104.73564 77.959473,89.949066 98.442963,72.16008 118.06042,53.396545 137.44109,34.418747 c 5.32399,-5.000702 11.36538,-9.224625 16.2266,-14.718536 3.77985,-4.297913 7.75429,-8.523484 12.66877,-11.546326 1.3412,-0.722229 2.75276,-2.064804 4.39982,-1.438767 3.32244,1.264145 6.25238,3.330368 9.3317,5.07309 8.13856,4.922867 16.69221,9.188339 24.38121,14.828003 4.36799,3.231125 9.15803,5.84874 14.2323,7.793518 8.81761,3.476822 16.94919,8.708221 26.27899,10.823608 10.95583,2.580964 21.56798,7.344407 32.99852,7.292633 6.69756,0.03833 13.40509,0.192109 20.09837,-0.164764 12.55382,-1.047394 24.70429,-4.655289 36.59853,-8.635742 8.63031,-2.956177 16.73758,-7.183808 25.0504,-10.900375 7.57554,-3.309495 13.74205,-8.941239 20.81415,-13.106629 7.68255,-4.16568 14.37318,-9.836716 21.72992,-14.487564 z m 0,0"
     style="fill:#cc4307;fill-rule:nonzero;stroke:none;fill-opacity:1" />
  <path
     inkscape:connector-curvature="0"
     id="path3028"
     d="m 397.10448,59.074931 c 3.09117,-1.666213 6.03553,-5.276033 9.90207,-4.067636 5.79904,2.476436 11.22808,5.909595 15.84159,10.229376 3.2164,3.09249 7.68083,4.148162 11.54902,6.162413 9.7185,4.413418 18.92161,10.184843 29.34989,12.839256 9.37032,2.350079 18.3968,6.040953 27.98452,7.511621 3.68802,0.668056 7.45335,0.53677 11.1772,0.888252 12.14181,1.388685 24.41815,0.642432 36.50965,-0.855344 8.04457,-1.430949 15.77761,-4.174142 23.65493,-6.294356 6.97718,-1.959262 13.86068,-4.31831 20.307,-7.668416 9.12673,-4.508655 18.83821,-8.013398 27.18576,-13.9595 3.67503,-2.492461 7.1545,-5.394264 11.28986,-7.114378 1.8858,-0.883667 3.60548,0.847445 4.99142,1.910459 7.45496,6.902309 14.12584,14.633512 21.95034,21.144649 12.72598,11.963275 25.57072,23.803633 38.49553,35.552953 11.83933,11.57782 24.6183,22.1439 36.54653,33.62305 2.03153,1.61919 1.90076,4.89407 -0.172,6.42464 -4.44734,4.07386 -7.83953,9.06554 -11.62598,13.71382 -7.55239,8.6004 -13.71043,18.28789 -19.83968,27.91964 -4.72205,6.95727 -7.68543,14.87785 -11.56385,22.29767 -3.31067,6.15966 -4.2096,13.3809 -8.47527,19.05811 -176.84986,-0.23053 -353.70726,-0.0153 -530.55638,-0.10734 -2.54649,0.27886 -4.46585,-1.76216 -5.00622,-4.07596 -2.1556,-7.66458 -6.29801,-14.50813 -9.40961,-21.78394 -3.01691,-6.78852 -6.44489,-13.39453 -10.58992,-19.56774 -4.6506,-6.94046 -8.38555,-14.55574 -14.08835,-20.7377 -4.183082,-4.80504 -8.841919,-9.17212 -12.905156,-14.08189 -1.266198,-1.64522 -3.736379,-2.57476 -4.208691,-4.69862 1.106075,-3.9436 4.868663,-6.21128 7.591532,-8.98094 9.586785,-9.3863 19.354685,-18.59896 29.392315,-27.49912 7.24253,-5.21482 12.8589,-12.21827 19.60015,-18.00215 7.39073,-6.024397 13.45567,-13.419028 20.49098,-19.817933 8.03773,-6.866617 15.17338,-14.793762 23.70832,-21.06568 1.84588,-1.559006 4.28686,-1.090393 6.11332,0.218067 13.72031,9.137228 28.92885,15.649621 43.80134,22.6275 11.9773,4.24127 23.98779,8.60737 36.49348,11.056085 10.86,1.378574 21.86561,1.95862 32.79635,1.094135 6.0862,-0.771605 12.28931,-0.401613 18.29936,-1.809923 9.47843,-2.093777 18.65005,-5.326621 27.91259,-8.19016 9.58138,-3.266552 18.23685,-8.653832 27.47851,-12.706286 6.63017,-2.656712 11.88472,-7.657461 18.02755,-11.186684 z m 0,0"
     style="fill:#fdfdfd;fill-rule:nonzero;stroke:none" />
  <path
     inkscape:connector-curvature="0"
     id="path3088"
     d="m 142.52494,281.91538 c 26.26403,-0.46062 52.5435,-0.0704 78.81402,-0.1993 130.52632,-3e-5 261.05247,-1.6e-4 391.57892,7e-5 18.6289,0.0576 37.26024,-0.1239 55.88922,0.10661 -2.74242,17.1484 -2.24348,34.55708 -2.04307,51.8609 0.0718,2.10105 0.38093,4.20553 1.01389,6.22155 6.59582,16.12394 10.73648,33.11176 16.76801,49.44635 3.75665,11.28675 9.48147,21.77479 13.50322,32.95996 1.97607,5.92834 6.35729,10.65328 8.36052,16.57888 3.78838,9.84212 8.44656,19.37326 11.31844,29.54608 1.37285,4.23539 2.90154,8.42133 4.27553,12.66126 4.41948,17.66442 9.36471,35.68886 8.03453,54.08222 -1.36018,7.60718 -2.12727,15.34699 -3.98931,22.85273 -3.15308,8.20197 -5.24187,16.86873 -9.58583,24.57318 -3.38348,6.40186 -7.6968,12.27905 -10.74608,18.86353 -1.61014,3.79883 -5.2538,6.03985 -7.86683,9.06829 -8.71636,9.95574 -18.66672,18.70775 -28.45246,27.5717 -2.79442,2.11537 -6.07271,3.45382 -8.97694,5.40011 -5.81142,3.76777 -11.43609,7.86712 -17.61965,11.02189 -6.63107,3.29364 -13.51838,6.02596 -20.25736,9.08114 -7.52269,3.36172 -15.71494,4.65345 -23.57715,6.94708 -4.19186,1.17062 -8.50251,1.80438 -12.81182,2.32639 -8.22458,0.96996 -16.28468,3.22662 -24.59951,3.39718 -6.74958,0.0212 -13.24897,2.09739 -19.9315,2.71651 -7.04457,0.50569 -14.11462,1.09749 -21.0083,2.69499 -6.05828,1.39684 -12.36518,0.99919 -18.38204,2.62554 -5.32662,1.40546 -10.84172,1.75472 -16.22688,2.82681 -11.9907,3.31655 -23.83461,7.17683 -35.74968,10.72342 -11.66089,6.847 -23.89435,12.84097 -34.85375,20.83465 -3.42876,2.32211 -6.1355,6.62601 -10.5334,6.90579 -3.34773,-1.70631 -5.91313,-4.53052 -8.76311,-6.90612 -9.30935,-8.08099 -21.33195,-11.95487 -31.1631,-19.26751 -3.25873,-2.49206 -7.48082,-2.74029 -11.27857,-3.88392 -8.30777,-2.35285 -16.61416,-4.7348 -24.75914,-7.60474 -5.22896,-1.84451 -10.85892,-1.68404 -16.25033,-2.72402 -4.25466,-0.82802 -8.48969,-1.81027 -12.81043,-2.21368 -8.50875,-0.67553 -16.84058,-2.65737 -25.32715,-3.5174 -8.95328,-0.81092 -17.76459,-2.7674 -26.73935,-3.36412 -8.63654,-0.70121 -17.05605,-2.88436 -25.66461,-3.79868 -11.34273,-1.72568 -22.40841,-4.97201 -33.22455,-8.73736 -10.00622,-4.29028 -19.99854,-8.74404 -29.27225,-14.4876 -6.842,-4.09876 -14.37182,-7.38217 -19.98395,-13.2146 -4.53561,-4.71552 -10.13471,-8.2241 -14.6879,-12.91514 -4.64961,-4.57407 -8.3838,-9.9784 -13.12391,-14.46483 -2.52931,-2.35168 -4.66509,-5.10292 -6.10521,-8.2496 -4.15453,-8.62301 -10.491267,-16.06717 -13.843257,-25.09641 -4.31773,-11.6644 -8.911541,-23.60796 -9.022717,-36.21753 -0.839426,-7.28069 -1.016818,-14.63364 -0.03917,-21.9088 -0.02319,-5.69854 1.055613,-11.2788 2.590369,-16.74161 2.622099,-13.98205 7.370651,-27.42937 11.762938,-40.9227 3.766897,-8.63235 6.818067,-17.58088 11.088927,-25.98826 6.5299,-10.63671 10.09078,-22.69281 15.28351,-33.97726 5.43996,-12.87389 9.17485,-26.36149 13.66215,-39.57486 1.98859,-5.89954 3.33948,-12.06161 6.30501,-17.58613 0.97254,-2.0902 2.53096,-4.21589 1.98793,-6.64388 -0.71548,-4.41016 -0.82933,-8.90833 -0.0826,-13.32092 1.20637,-8.34652 -0.21313,-16.7152 -0.75018,-25.04535 -0.591,-5.12588 -1.78825,-10.16649 -2.1341,-15.32248 z m 0,0"
     style="fill:#fdfdfd;fill-rule:nonzero;stroke:none" />
  <text
     xml:space="preserve"
     style="font-size:120px;font-style:normal;font-weight:bold;line-height:125%;letter-spacing:0px;word-spacing:0px;fill:#3371a3;fill-opacity:1;stroke:none;font-family:Sans;-inkscape-font-specification:Sans Bold"
     x="315.37714"
     y="199.0329"
     id="text3182"
     sodipodi:linespacing="125%"><tspan
       sodipodi:role="line"
       id="tspan3184"
       x="315.37714"
       y="199.0329"
       style="font-size:120px;font-weight:bold;line-height:100%;-inkscape-font-specification:Sans Bold;fill:#3371a3;fill-opacity:1">MY</tspan><tspan
       sodipodi:role="line"
       x="315.37714"
       y="319.03287"
       id="tspan3186" /></text>
  <text
     xml:space="preserve"
     style="font-size:120px;font-style:normal;font-weight:bold;line-height:125%;letter-spacing:0px;word-spacing:0px;fill:#3371a3;fill-opacity:1;stroke:none;font-family:Sans;-inkscape-font-specification:Sans Bold"
     x="149.51913"
     y="482.68964"
     id="text3188"
     sodipodi:linespacing="125%"><tspan
       sodipodi:role="line"
       id="tspan3190"
       x="149.51913"
       y="482.68964">ROUTES</tspan></text>
</svg>
